<?xml version="1.0" standalone="no"?><!DOCTYPE svg PUBLIC "-//W3C//DTD SVG 1.1//EN" "http://www.w3.org/Graphics/SVG/1.1/DTD/svg11.dtd"><svg t="1586929055871" class="icon" viewBox="0 0 1024 1024" version="1.1" xmlns="http://www.w3.org/2000/svg" p-id="3706" xmlns:xlink="http://www.w3.org/1999/xlink" width="64" height="64"><defs><style type="text/css"></style></defs><path d="M741.122901 996.904913a26.717268 26.717268 0 0 1-19.05292-7.826271L264.044259 531.05292a26.771242 26.771242 0 0 1-0.053974-38.10584L722.069981 34.867384a26.825216 26.825216 0 0 1 38.213789 0 27.041113 27.041113 0 0 1 0 38.10584l-419.919882 419.919882-19.05292 19.05292 19.05292 19.106894 419.865908 419.811933a27.041113 27.041113 0 0 1-19.106895 46.094034z" fill="#ffffff" p-id="3707"></path><path d="M741.122901 969.917774l-318.934008-318.880034 318.880034 318.934008h0.053974m0 53.974278a53.758381 53.758381 0 0 1-38.159814-15.814464L244.991339 550.10584a53.758381 53.758381 0 0 1 0-76.319629L702.963087 15.760489a53.974278 53.974278 0 0 1 76.319629 76.319629l-419.811934 419.919882 419.811934 419.811933a53.974278 53.974278 0 0 1-38.159815 92.134093z" fill="#ffffff" p-id="3708"></path></svg>