<?xml version="1.0" standalone="no"?><!DOCTYPE svg PUBLIC "-//W3C//DTD SVG 1.1//EN" "http://www.w3.org/Graphics/SVG/1.1/DTD/svg11.dtd"><svg t="1586933932262" class="icon" viewBox="0 0 1137 1024" version="1.1" xmlns="http://www.w3.org/2000/svg" p-id="8817" xmlns:xlink="http://www.w3.org/1999/xlink" width="71.0625" height="64"><defs><style type="text/css"></style></defs><path d="M882.563536 797.701657c-22.629834 0-39.60221 5.657459-56.574586 16.972376H435.624309c-16.972376-11.314917-33.944751-16.972376-56.574585-16.972376l-11.314917-79.204419h599.690607L1131.491713 147.093923H294.187845L192.353591 0H0v67.889503h158.40884l84.861878 124.464088 73.546962 514.828729 11.314917 107.491713c-33.944751 16.972376-56.574586 56.574586-56.574586 96.176796 0 62.232044 50.917127 113.149171 107.491713 113.149171s107.491713-50.917127 107.491712-113.149171c0-16.972376 0-28.287293-5.657458-39.60221h305.502762c-5.657459 11.314917-5.657459 28.287293-5.657458 39.60221 0 62.232044 50.917127 113.149171 107.491712 113.149171s107.491713-50.917127 107.491713-113.149171-50.917127-113.149171-113.149171-113.149172z m-503.513812 169.723757c-28.287293 0-56.574586-28.287293-56.574586-56.574585s22.629834-56.574586 56.574586-56.574586 56.574586 28.287293 56.574585 56.574586-28.287293 56.574586-56.574585 56.574585z m503.513812 0c-28.287293 0-56.574586-28.287293-56.574586-56.574585 0-16.972376 5.657459-28.287293 16.972376-39.60221h5.657459v-5.657459c11.314917-11.314917 22.629834-11.314917 33.944751-11.314917 28.287293 0 56.574586 28.287293 56.574586 56.574586s-22.629834 56.574586-56.574586 56.574585z" fill="#d4237a" p-id="8818"></path><path d="M882.563536 797.701657c-22.629834 0-39.60221 5.657459-56.574586 16.972376H435.624309c-16.972376-11.314917-33.944751-16.972376-56.574585-16.972376l-11.314917-79.204419h599.690607L1131.491713 147.093923H294.187845L192.353591 0H0v67.889503h158.40884l84.861878 124.464088 73.546962 514.828729 11.314917 107.491713c-33.944751 16.972376-56.574586 56.574586-56.574586 96.176796 0 62.232044 50.917127 113.149171 107.491713 113.149171s107.491713-50.917127 107.491712-113.149171c0-16.972376 0-28.287293-5.657458-39.60221h305.502762c-5.657459 11.314917-5.657459 28.287293-5.657458 39.60221 0 62.232044 50.917127 113.149171 107.491712 113.149171s107.491713-50.917127 107.491713-113.149171-50.917127-113.149171-113.149171-113.149172z m-503.513812 169.723757c-28.287293 0-56.574586-28.287293-56.574586-56.574585s22.629834-56.574586 56.574586-56.574586 56.574586 28.287293 56.574585 56.574586-28.287293 56.574586-56.574585 56.574585z m503.513812 0c-28.287293 0-56.574586-28.287293-56.574586-56.574585 0-16.972376 5.657459-28.287293 16.972376-39.60221h5.657459v-5.657459c11.314917-11.314917 22.629834-11.314917 33.944751-11.314917 28.287293 0 56.574586 28.287293 56.574586 56.574586s-22.629834 56.574586-56.574586 56.574585z" fill="#d4237a" p-id="8819"></path></svg>