<?xml version="1.0" standalone="no"?><!DOCTYPE svg PUBLIC "-//W3C//DTD SVG 1.1//EN" "http://www.w3.org/Graphics/SVG/1.1/DTD/svg11.dtd"><svg t="1586947119056" class="icon" viewBox="0 0 1024 1024" version="1.1" xmlns="http://www.w3.org/2000/svg" p-id="16938" xmlns:xlink="http://www.w3.org/1999/xlink" width="64" height="64"><defs><style type="text/css"></style></defs><path d="M791.175587 635.480642V70.150078c0-25.591095 20.938169-46.529264 46.529264-46.529264 13.958779 0 27.917559 6.97939 37.223412 18.611706 67.467433 95.384992 102.364382 209.38169 102.364382 325.704851v132.608404c0 20.938169-16.285243 41.876338-37.223412 46.529264l-18.611706 4.652927c-20.938169 4.652926-37.223412 23.264632-37.223411 46.529264v39.549875h-93.058529z" fill="#B0C4D8" p-id="16939"></path><path d="M935.416307 523.810407c11.632316-2.326463 18.611706-11.632316 18.611706-23.264632v-132.608404c0-111.670235-34.896948-221.014006-97.711456-311.746072-4.652926-6.97939-13.958779-9.305853-20.938169-9.305853 62.814507 95.384992 95.384992 207.055227 95.384992 321.051925v155.873036h4.652927z" fill="#D5E3EF" p-id="16940"></path><path d="M163.030516 1000.735368c-25.591095 0-46.529264-20.938169-46.529264-46.529265V626.174789c0-13.958779 4.652926-25.591095 16.285243-34.896949L163.030516 561.033818l32.570486 32.570486c9.305853 9.305853 13.958779 20.938169 13.958779 34.896948v325.704851c0 25.591095-20.938169 46.529264-46.529265 46.529265zM512 1000.735368c-25.591095 0-46.529264-20.938169-46.529264-46.529265V626.174789c0-13.958779 4.652926-25.591095 16.285242-34.896949l30.244022-30.244022 32.570485 32.570486c9.305853 9.305853 13.958779 20.938169 13.958779 32.570485v325.704851c0 27.917559-20.938169 48.855728-46.529264 48.855728z" fill="#D98B37" p-id="16941"></path><path d="M495.714757 402.834319c-6.97939-4.652926-13.958779-9.305853-20.938169-11.632316-62.814507-11.632316-102.364382-51.182191-102.364381-102.364382 2.326463-20.938169 9.305853-120.976088 18.611705-155.873036C407.309155 51.538372 439.87964 23.620814 512 23.620814s104.690845 27.917559 120.976088 109.343771c6.97939 32.570485 13.958779 118.649624 16.285242 153.546573 0 55.835117-39.549875 95.384992-102.364382 107.017308-9.305853 2.326463-16.285243 4.652926-23.264632 11.632316l-11.632316 11.632317-16.285243-13.95878z" fill="#B0C4D8" p-id="16942"></path><path d="M837.704851 1000.735368c-25.591095 0-46.529264-20.938169-46.529264-46.529265V651.765884c0-25.591095 20.938169-46.529264 46.529264-46.529264s46.529264 20.938169 46.529265 46.529264v302.440219c0 25.591095-20.938169 46.529264-46.529265 46.529265z" fill="#D98B37" p-id="16943"></path><path d="M619.017308 186.473239L395.676839 281.858232v6.979389c0 13.958779 4.652926 25.591095 9.305853 34.896949l218.687543-93.058529c-2.326463-13.958779-2.326463-27.917559-4.652927-44.202802zM411.962081 137.617512c-4.652926 18.611706-9.305853 62.814507-11.632316 97.711455l211.708154-90.732066c0-2.326463 0-4.652926-2.326464-6.979389C595.752676 65.497152 574.814507 46.885446 512 46.885446s-83.752676 18.611706-100.037919 90.732066z" fill="#D5E3EF" p-id="16944"></path><path d="M528.285243 612.216009l-16.285243-16.285242V930.941471c0 13.958779-9.305853 23.264632-23.264632 23.264632 0 13.958779 9.305853 23.264632 23.264632 23.264633s23.264632-9.305853 23.264632-23.264633V628.501252c0-6.97939-2.326463-11.632316-6.979389-16.285243zM837.704851 930.941471c0 13.958779-9.305853 23.264632-23.264632 23.264632 0 13.958779 9.305853 23.264632 23.264632 23.264633s23.264632-9.305853 23.264633-23.264633V651.765884c0-13.958779-9.305853-23.264632-23.264633-23.264632v302.440219zM179.315759 612.216009l-16.285243-16.285242V930.941471c0 13.958779-9.305853 23.264632-23.264632 23.264632 0 13.958779 9.305853 23.264632 23.264632 23.264633s23.264632-9.305853 23.264633-23.264633V628.501252c0-6.97939-2.326463-11.632316-6.97939-16.285243z" fill="#C87729" p-id="16945"></path><path d="M814.440219 70.150078v183.790595l113.996698-48.855728c-16.285243-51.182191-41.876338-102.364382-72.12036-146.567183-4.652926-6.97939-11.632316-11.632316-18.611706-11.632316-13.958779 0-23.264632 9.305853-23.264632 23.264632zM814.440219 346.999202l132.608404-58.161581c-2.326463-13.958779-4.652926-27.917559-6.97939-44.202801L814.440219 300.469937v46.529265z" fill="#D5E3EF" p-id="16946"></path><path d="M940.069233 244.63482l-20.938169 9.305853c2.326463 13.958779 4.652926 27.917559 6.97939 44.202801l20.938169-9.305853c0-13.958779-4.652926-27.917559-6.97939-44.202801zM835.378388 46.885446c32.570485 51.182191 58.161581 107.017308 74.446823 165.178889l18.611706-9.305853c-16.285243-51.182191-41.876338-102.364382-72.12036-146.567183-4.652926-6.97939-13.958779-9.305853-20.938169-9.305853z" fill="#ECF0F9" p-id="16947"></path><path d="M221.192097 349.325665c16.285243-4.652926 32.570485-13.958779 46.529264-27.917559 23.264632-20.938169 34.896948-51.182191 34.896949-81.426212v-13.95878l-16.285243-120.976087c-2.326463-11.632316-4.652926-65.14097-6.979389-83.752676 0-13.958779-11.632316-23.264632-25.591096-20.938169-13.958779 0-23.264632 11.632316-20.938169 25.591095 0 6.97939 4.652926 72.12036 6.97939 88.405602L256.089045 233.002504v6.97939c0 18.611706-6.97939 34.896948-20.938169 46.529264-6.97939 6.97939-16.285243 13.958779-27.917558 16.285243-6.97939 2.326463-13.958779 6.97939-20.938169 9.305853V23.620814c0-13.958779-9.305853-23.264632-23.264633-23.264632S139.765884 11.988498 139.765884 23.620814v290.807903c-6.97939-4.652926-13.958779-6.97939-20.938169-9.305853-11.632316-2.326463-20.938169-9.305853-27.917559-16.285243-16.285243-13.958779-23.264632-34.896948-20.938169-55.835117l16.285243-120.976088c2.326463-13.958779 6.97939-79.09975 6.97939-86.079139C93.23662 11.988498 83.930767 0.356182 72.298451 0.356182 58.339671 0.356182 46.707355 9.662034 46.707355 21.294351c-2.326463 20.938169-4.652926 74.446823-6.979389 86.079139L23.442723 226.023114c-4.652926 34.896948 9.305853 69.793897 34.896948 95.384992 13.958779 11.632316 27.917559 20.938169 46.529265 27.917559 20.938169 6.97939 34.896948 25.591095 34.896948 46.529265v155.873036l-23.264632 23.264632c-13.958779 13.958779-23.264632 32.570485-23.264632 51.182191V954.206103c0 39.549875 30.244022 69.793897 69.793896 69.793897s69.793897-30.244022 69.793897-69.793897V628.501252c0-18.611706-6.97939-37.223412-20.938169-48.855728L186.295149 551.727966V395.85493c0-20.938169 13.958779-39.549875 34.896948-46.529265zM186.295149 954.206103c0 13.958779-9.305853 23.264632-23.264633 23.264633s-23.264632-9.305853-23.264632-23.264633V626.174789c0-6.97939 2.326463-11.632316 6.97939-16.285243l16.285242-16.285242 16.285243 16.285242c4.652926 6.97939 6.97939 11.632316 6.97939 18.611706v325.704851zM553.876338 414.466635c74.446823-13.958779 120.976088-62.814507 120.976088-127.955477v-2.326463c0-4.652926-9.305853-118.649624-18.611706-158.199499-16.285243-76.773286-46.529264-125.629014-144.24072-125.629014s-127.955477 48.855728-144.24072 125.629014c-9.305853 39.549875-18.611706 153.546573-18.611706 160.525962 0 65.14097 46.529264 113.996698 120.976088 127.955477 11.632316 2.326463 18.611706 11.632316 18.611706 23.264633v113.996698l-23.264632 23.264632c-13.958779 13.958779-23.264632 32.570485-23.264633 51.182191V954.206103c0 39.549875 30.244022 69.793897 69.793897 69.793897s69.793897-30.244022 69.793897-69.793897V628.501252c0-18.611706-6.97939-37.223412-20.938169-48.855728L535.264632 551.727966v-113.996698c0-11.632316 6.97939-20.938169 18.611706-23.264633z m-74.446823-44.202801c-51.182191-9.305853-83.752676-39.549875-83.752676-81.426213 0 0 9.305853-116.323161 16.285242-151.220109C428.247324 65.497152 449.185493 46.885446 512 46.885446s83.752676 18.611706 100.037919 90.732066c6.97939 34.896948 16.285243 139.587793 16.285242 151.220109 0 41.876338-30.244022 72.12036-83.752676 81.426213-13.958779 2.326463-23.264632 6.97939-32.570485 16.285243-9.305853-9.305853-20.938169-13.958779-32.570485-16.285243zM535.264632 954.206103c0 13.958779-9.305853 23.264632-23.264632 23.264633s-23.264632-9.305853-23.264632-23.264633V626.174789c0-6.97939 2.326463-11.632316 6.979389-16.285243l16.285243-13.958779 16.285243 16.285242c4.652926 4.652926 6.97939 9.305853 6.979389 16.285243v325.704851zM893.539969 30.600203C881.907653 11.988498 858.64302 0.356182 837.704851 0.356182c-37.223412 0-69.793897 30.244022-69.793896 69.793896v884.056025c0 39.549875 30.244022 69.793897 69.793896 69.793897s69.793897-30.244022 69.793897-69.793897V595.930767c0-11.632316 6.97939-20.938169 18.611706-23.264632l18.611706-4.652927c32.570485-6.97939 55.835117-34.896948 55.835117-67.467433v-132.608404c0-120.976088-37.223412-237.299249-107.017308-337.337168zM860.969484 954.206103c0 13.958779-9.305853 23.264632-23.264633 23.264633s-23.264632-9.305853-23.264632-23.264633V651.765884c0-13.958779 9.305853-23.264632 23.264632-23.264632s23.264632 9.305853 23.264633 23.264632v302.440219z m93.058529-453.660328c0 11.632316-6.97939 20.938169-18.611706 23.264632l-18.611706 4.652926c-30.244022 6.97939-51.182191 30.244022-55.835117 58.161581-6.97939-2.326463-16.285243-4.652926-23.264633-4.652927-9.305853 0-16.285243 2.326463-23.264632 4.652927V70.150078c0-11.632316 9.305853-23.264632 23.264632-23.264632 6.97939 0 13.958779 4.652926 18.611706 9.305853 65.14097 93.058529 97.711455 200.075837 97.711456 311.746072v132.608404z" fill="#014463" p-id="16948"></path></svg>