<?xml version="1.0" standalone="no"?><!DOCTYPE svg PUBLIC "-//W3C//DTD SVG 1.1//EN" "http://www.w3.org/Graphics/SVG/1.1/DTD/svg11.dtd"><svg t="1586933961735" class="icon" viewBox="0 0 1024 1024" version="1.1" xmlns="http://www.w3.org/2000/svg" p-id="10297" xmlns:xlink="http://www.w3.org/1999/xlink" width="64" height="64"><defs><style type="text/css"></style></defs><path d="M251.76113265 985.21848125a125.27159459 125.27159459 0 0 1-125.09998964-125.09998966L126.66114301 209.39261951A125.27159459 125.27159459 0 0 1 251.76113265 84.29262986l520.56353716 0a125.27159459 125.27159459 0 0 1 125.09998966 125.09998965l0 650.64006963a125.27159459 125.27159459 0 0 1-125.09998966 125.09998964z m0-845.84067076a70.18641395 70.18641395 0 0 0-70.1006115 70.10061147l0 650.64006963a70.18641395 70.18641395 0 0 0 70.1006115 70.10061148l520.56353716 0a70.18641395 70.18641395 0 0 0 70.1006115-70.10061148L842.42528131 209.39261951a70.18641395 70.18641395 0 0 0-70.1006115-70.10061148z" fill="#d4237a" p-id="10298"></path><path d="M306.07409111 562.29814586a27.5425903 27.5425903 0 1 1 0-54.99937815l411.85181778 0a27.5425903 27.5425903 0 1 1 0 54.99937815zM306.07409111 692.3746783a27.5425903 27.5425903 0 1 1 0-54.65616829l281.00306317 0a27.5425903 27.5425903 0 1 1 0 55.08518061zM306.07409111 431.79260111a27.5425903 27.5425903 0 1 1 0-55.08518063l411.85181778 0a27.5425903 27.5425903 0 1 1 0 55.08518063z" fill="#d4237a" p-id="10299"></path></svg>