<?xml version="1.0" standalone="no"?><!DOCTYPE svg PUBLIC "-//W3C//DTD SVG 1.1//EN" "http://www.w3.org/Graphics/SVG/1.1/DTD/svg11.dtd"><svg t="1586933882970" class="icon" viewBox="0 0 1024 1024" version="1.1" xmlns="http://www.w3.org/2000/svg" p-id="6090" xmlns:xlink="http://www.w3.org/1999/xlink" width="64" height="64"><defs><style type="text/css"></style></defs><path d="M53.313126 104.448C18.497126 63.488-16.318874 71.68 8.257126 180.224c133.12 430.08 323.584 368.64 370.688 352.256 92.16 94.208 368.64 393.216 368.64 393.216 20.48 20.48 55.296 20.48 75.776 0s20.48-53.248 0-73.728L53.313126 104.448s32.768 38.912 0 0" fill="#d4237a" p-id="6091"></path><path d="M997.441126 247.808c-16.384-16.384-36.864 0-36.864 0l-194.56 194.56s-18.432 18.432-36.864 0 0-36.864 0-36.864l190.464-210.944s12.288-14.336-2.048-28.672-28.672-2.048-28.672-2.048l-208.896 192.512s-20.48 16.384-36.864 0 0-36.864 0-36.864 186.368-188.416 194.56-194.56c8.192-8.192 10.24-26.624 0-36.864s-28.672 0-28.672 0-139.264 108.544-221.184 190.464c-81.92 83.968-40.96 210.944-40.96 210.944l-391.168 368.64c-18.432 18.432-16.384 49.152 4.096 69.632s51.2 20.48 69.632 4.096c0 0 346.112-372.736 364.544-391.168 114.688 32.768 215.04-40.96 215.04-40.96l192.512-225.28c-2.048-2.048 8.192-14.336-4.096-26.624" fill="#d4237a" p-id="6092"></path></svg>