<?xml version="1.0" standalone="no"?><!DOCTYPE svg PUBLIC "-//W3C//DTD SVG 1.1//EN" "http://www.w3.org/Graphics/SVG/1.1/DTD/svg11.dtd"><svg t="1586933840714" class="icon" viewBox="0 0 1024 1024" version="1.1" xmlns="http://www.w3.org/2000/svg" p-id="4551" xmlns:xlink="http://www.w3.org/1999/xlink" width="64" height="64"><defs><style type="text/css"></style></defs><path d="M438.857143 658.285714h146.285714v256h-146.285714z" fill="#d4237a" p-id="4552"></path><path d="M866.742857 522.971429l-329.142857-329.142858c-14.628571-14.628571-36.571429-14.628571-51.2 0l-329.142857 329.142858c-14.628571 14.628571-14.628571 36.571429 0 51.2 14.628571 14.628571 36.571429 14.628571 51.2 0l10.971428-10.971429V877.714286c0 21.942857 14.628571 36.571429 36.571429 36.571428h109.714286v-73.142857H292.571429v-351.085714l219.428571-219.428572 219.428571 219.428572V841.142857h-73.142857v73.142857h109.714286c21.942857 0 36.571429-14.628571 36.571429-36.571428v-314.514286l10.971428 10.971429c14.628571 14.628571 36.571429 14.628571 51.2 0 14.628571-14.628571 14.628571-36.571429 0-51.2z" fill="#d4237a" p-id="4553"></path></svg>