<?xml version="1.0" standalone="no"?><!DOCTYPE svg PUBLIC "-//W3C//DTD SVG 1.1//EN" "http://www.w3.org/Graphics/SVG/1.1/DTD/svg11.dtd"><svg t="1587010479253" class="icon" viewBox="0 0 1024 1024" version="1.1" xmlns="http://www.w3.org/2000/svg" p-id="25042" xmlns:xlink="http://www.w3.org/1999/xlink" width="64" height="64"><defs><style type="text/css"></style></defs><path d="M603.185 307.024S574.6 421.378 574.6 478.561h343.055c0-57.182-28.585-171.537-28.585-171.537H603.185zM96.684 860.363V446.85h399.263v413.514c0 39.387-31.923 71.298-71.294 71.298H167.978c-39.372-0.001-71.294-31.912-71.294-71.299z" fill="#FFFFFF" p-id="25043"></path><path d="M360.186 106.909h314.47v829.063h-314.47z" fill="#FFFFFF" p-id="25044"></path><path d="M360.186 178.377h314.47v643.235h-314.47z" fill="#F7CB5D" p-id="25045"></path><path d="M603.185 934.626H889.07v15.636H603.185z" fill="#41210D" p-id="25046"></path><path d="M738.211 750.147h17.881v185.822h-17.881zM360.186 92.614h314.47v28.588h-314.47zM360.186 819.178h314.47v131.084h-314.47z" fill="#41210D" p-id="25047"></path><path d="M382.296 834.561h271.602v100.065H382.296z" fill="#FFFFFF" p-id="25048"></path><path d="M88.59 870.973V742.329h400.243v128.644c0 39.473-31.999 71.472-71.471 71.472h-257.3c-39.473-0.001-71.472-31.99-71.472-71.472z m0 0" fill="#E8891E" p-id="25049"></path><path d="M416.186 178.377h17.261v200.119h-17.261V178.377z m1.176 771.885h-257.3c-47.287 0-85.76-38.467-85.76-85.764V449.97c0-7.903 6.392-14.295 14.289-14.295h400.243c7.903 0 14.296 6.392 14.296 14.295v414.528c-0.001 47.297-38.475 85.764-85.768 85.764zM88.59 449.97v424.073c0 33.412 27.365 60.583 61.007 60.583h274.529c33.643 0 61.007-27.171 61.007-60.583V449.97H88.59z m14.296 14.292" fill="#41210D" p-id="25050"></path><path d="M200.514 893.086h-34.516c-19.038 0-34.521-15.478-34.521-34.515v-25.885h17.254v25.885c0 9.516 7.745 17.258 17.267 17.258h34.516v17.257z m0 0" fill="#41210D" p-id="25051"></path><path d="M728.848 756.621h28.597s157.226-57.176 157.226-271.586H571.615c0 214.41 157.233 271.586 157.233 271.586z m0 0" fill="#73C7CD" p-id="25052"></path><path d="M760.429 764.439h-28.597c-1.663 0-3.32-0.294-4.888-0.863-1.657-0.601-166.634-63.169-166.634-285.025 0-58.26 27.826-170.256 29.015-174.992a14.285 14.285 0 0 1 13.859-10.831h285.885c6.563 0 12.272 4.47 13.859 10.831 1.195 4.735 29.027 116.729 29.027 174.992 0 115.502-44.916 186.695-82.587 226.085-41.135 43.01-82.333 58.305-84.06 58.939-1.56 0.571-3.229 0.864-4.879 0.864z m-28.224-11.33h24.879c20.543-8.476 156.391-72.239 156.391-276.274 0-47.986-19.947-137.069-27.446-168.843h-282.78c-7.492 31.774-27.453 120.857-27.453 168.843-0.001 204.035 135.853 267.802 156.409 276.274z m2.339-17.255" fill="#41210D" p-id="25053"></path><path d="M777.247 701.75l-10.578-18.152c16.439-10.779 46.972-35.6 66.622-80.79l18.292 8.943c-21.864 50.265-55.956 77.964-74.336 89.999z m0 0" fill="#41210D" p-id="25054"></path></svg>