<?xml version="1.0" standalone="no"?><!DOCTYPE svg PUBLIC "-//W3C//DTD SVG 1.1//EN" "http://www.w3.org/Graphics/SVG/1.1/DTD/svg11.dtd"><svg t="1587010440157" class="icon" viewBox="0 0 1024 1024" version="1.1" xmlns="http://www.w3.org/2000/svg" p-id="24036" xmlns:xlink="http://www.w3.org/1999/xlink" width="64" height="64"><defs><style type="text/css"></style></defs><path d="M512 10.44898C234.057143 10.44898 10.44898 234.057143 10.44898 512s223.608163 501.55102 501.55102 501.55102 501.55102-223.608163 501.55102-501.55102-223.608163-501.55102-501.55102-501.55102z m0 723.069387c-121.208163 0-221.518367-98.220408-221.518367-221.518367s98.220408-221.518367 221.518367-221.518367 221.518367 98.220408 221.518367 221.518367-100.310204 221.518367-221.518367 221.518367z" fill="#FF7058" p-id="24037"></path><path d="M888.163265 355.265306c-22.987755-52.244898-12.538776-129.567347-52.244898-169.273469-39.706122-39.706122-114.938776-29.257143-167.183673-50.155102-50.155102-20.897959-98.220408-83.591837-156.734694-83.591837s-104.489796 62.693878-156.734694 83.591837-127.477551 10.44898-169.273469 50.155102c-39.706122 41.795918-29.257143 117.028571-50.155102 169.273469-20.897959 50.155102-83.591837 98.220408-83.591837 156.734694s62.693878 104.489796 83.591837 156.734694c22.987755 52.244898 12.538776 129.567347 52.244898 169.273469 39.706122 39.706122 117.028571 29.257143 169.273469 52.244898 50.155102 20.897959 98.220408 83.591837 156.734694 83.591837s104.489796-62.693878 156.734694-83.591837c52.244898-22.987755 129.567347-12.538776 169.273469-52.244898 39.706122-39.706122 29.257143-117.028571 52.244898-169.273469 20.897959-50.155102 83.591837-98.220408 83.591837-156.734694s-66.873469-104.489796-87.771429-156.734694z m-376.163265 422.138776c-146.285714 0-265.404082-119.118367-265.404082-265.404082 0-146.285714 119.118367-265.404082 265.404082-265.404082s265.404082 119.118367 265.404082 265.404082c0 146.285714-119.118367 265.404082-265.404082 265.404082z" fill="#F1543F" p-id="24038"></path><path d="M183.902041 472.293878h-83.591837c-8.359184 0-16.718367-8.359184-16.718367-16.718368s6.269388-16.718367 16.718367-16.718367h83.591837c8.359184 0 16.718367 8.359184 16.718367 16.718367-2.089796 10.44898-8.359184 16.718367-16.718367 16.718368zM344.816327 223.608163c-6.269388 0-10.44898-4.179592-14.628572-8.359183L292.571429 140.016327c-4.179592-8.359184 0-16.718367 6.269387-20.89796 8.359184-4.179592 16.718367 0 20.89796 6.269388l37.616326 75.232653c6.269388 6.269388 4.179592 22.987755-12.538775 22.987755z" fill="#F2F2F2" p-id="24039"></path><path d="M760.685714 167.183673l-85.681632-4.179591c-8.359184 0-14.628571-8.359184-14.628572-16.718368s8.359184-14.628571 16.718368-14.628571l83.591836 4.179592c8.359184 0 14.628571 8.359184 14.628572 16.718367s-6.269388 14.628571-14.628572 14.628571zM752.326531 752.326531c-8.359184-4.179592-12.538776-12.538776-8.359184-20.89796l33.436735-77.322449c4.179592-8.359184 12.538776-12.538776 20.897959-8.359183 8.359184 4.179592 12.538776 12.538776 8.359183 20.897959L773.22449 743.967347c-2.089796 6.269388-10.44898 12.538776-20.897959 8.359184z" fill="#FFD15C" p-id="24040"></path><path d="M399.15102 961.306122c-6.269388-6.269388-6.269388-16.718367 0-22.987755l58.514286-58.514285c6.269388-6.269388 16.718367-6.269388 22.987755 0 6.269388 6.269388 6.269388 16.718367 0 22.987755L422.138776 961.306122c-4.179592 4.179592-16.718367 6.269388-22.987756 0z" fill="#F2F2F2" p-id="24041"></path><path d="M833.828571 388.702041l-41.795918-73.142857c-4.179592-8.359184-2.089796-16.718367 6.269388-20.89796 8.359184-4.179592 16.718367-2.089796 20.897959 6.269388l41.795918 73.142857c4.179592 8.359184 2.089796 16.718367-6.269387 20.89796-6.269388 4.179592-16.718367 2.089796-20.89796-6.269388zM225.697959 766.955102l-41.795918-73.142857c-4.179592-8.359184-2.089796-16.718367 6.269388-20.897959 8.359184-4.179592 16.718367-2.089796 20.897959 6.269387l41.795918 73.142858c4.179592 8.359184 2.089796 16.718367-6.269388 20.897959-6.269388 4.179592-16.718367-2.089796-20.897959-6.269388z" fill="#84DBFF" p-id="24042"></path><path d="M704.261224 819.2m-27.167346 0a27.167347 27.167347 0 1 0 54.334693 0 27.167347 27.167347 0 1 0-54.334693 0Z" fill="#FF7058" p-id="24043"></path><path d="M944.587755 629.028571m-27.167347 0a27.167347 27.167347 0 1 0 54.334694 0 27.167347 27.167347 0 1 0-54.334694 0Z" fill="#F2F2F2" p-id="24044"></path><path d="M112.84898 658.285714m-27.167347 0a27.167347 27.167347 0 1 0 54.334694 0 27.167347 27.167347 0 1 0-54.334694 0Z" fill="#FFD15C" p-id="24045"></path><path d="M518.269388 198.530612m-27.167347 0a27.167347 27.167347 0 1 0 54.334694 0 27.167347 27.167347 0 1 0-54.334694 0Z" fill="#FF7058" p-id="24046"></path><path d="M154.644898 263.314286m-27.167347 0a27.167347 27.167347 0 1 0 54.334694 0 27.167347 27.167347 0 1 0-54.334694 0Z" fill="#84DBFF" p-id="24047"></path></svg>