<?xml version="1.0" standalone="no"?><!DOCTYPE svg PUBLIC "-//W3C//DTD SVG 1.1//EN" "http://www.w3.org/Graphics/SVG/1.1/DTD/svg11.dtd"><svg t="1587010584992" class="icon" viewBox="0 0 1024 1024" version="1.1" xmlns="http://www.w3.org/2000/svg" p-id="28783" xmlns:xlink="http://www.w3.org/1999/xlink" width="64" height="64"><defs><style type="text/css"></style></defs><path d="M531.456 238.976s-58.992-95.024 8.512-125.168c0 0 17.696-8.512 33.424 11.136 0 0 34.08 32.112 81.248 3.936l48.512-38.672s47.184-33.424 75.36 13.104c0 0 7.856 13.104-3.296 72.736l53.76 3.936s68.144 7.856 46.496 81.92c0 0 60.32-46.352 23.6-91.664 0 0-19.648-16.464-46.496-27.616-26.896-11.136-26.896-15.728-30.816-36.704 0 0-2.624-81.92-88.464-61.6 0 0-23.6 5.248-52.432 32.112 0 0-41.296 32.112-71.44-1.312 0 0-63.552-68.816-119.264-23.6 0 0-39.984 24.912-29.504 90.432 0 0.032 7.888 40 70.8 97.024z" fill="#E84618" p-id="28784"></path><path d="M599.6 165.568l43.904-3.936-21.952 150.736zM752.96 182.608l17.68 13.76-104.848 116z" fill="#E84618" p-id="28785"></path><path d="M669.728 464.4s15.056-140.24 147.456-168.416c0 0 71.424-15.072 111.392 55.696 0 0 9.184 27.84-12.432 45.216l-19.664 17.696s-23.6 26.864 9.184 31.456c32.768 4.592 42.592 4.592 42.592 4.592s36.048 9.824 31.456 60.928c0 0-9.824 58.352-93.696 83.92 0 0-116.672 16.368-190.064-47.84 0 0 20.976 55.68 114.032 83.872 0 0 129.76 26.88 190.704-79.28 0 0 59.632-110.768-11.792-208.416 0 0-57.008-81.92-168.416-66.848-0.032 0-142.224 16.832-150.752 187.424z" fill="#E84618" p-id="28786"></path><path d="M761.456 449.328s-15.696-47.84-52.4-43.248c0 0-15.072 5.248-10.496 31.456-0.016 0 4.576 18.352 62.896 11.792zM810.608 401.504s7.216-64.896-24.24-69.472c0 0-30.816 0-24.928 25.552 0.016 0 11.808 33.424 49.168 43.92zM859.776 401.504s44.72-32.08 34.08-63.568c0 0-16.4-18.352-34.08-5.904 0 0-17.696 11.792 0 69.472zM895.488 466.368s67.824-2.608 61.296 39.984c0 0-7.872 26.864-36.72 6.56 0 0-21.968-21.776-24.576-46.544zM838.816 504.384s40.304 24.272 34.896 60.96c0 0-15.248 16.368-31.648 6.56 0 0-17.024-9.84-3.248-67.52zM791.632 493.424s2.608 65.36-20.992 67.984c0 0-35.392-1.312-26.208-28.848 0 0 6.56-25.856 47.2-39.136z" fill="#E84618" p-id="28787"></path><path d="M205.488 254.592c-147.648 123.408-41.696 314-41.696 314l435.808-218.864c-43.264-117.968-235.744-227.536-394.112-95.136z m266.32 137.728s-45.216-63.312-137.632-27.712c0 0-66.192 22.48-64.88 107.008l-76.672 36.048s-43.92-87.168 7.856-182.848c0 0 47.856-79.312 124.528-98.304 0 0 94.368-30.8 177.6 24.256 0 0 58.976 38 81.264 93.712v2.624l-112.064 45.216z" fill="#E84618" p-id="28788"></path><path d="M256.976 448.336s-40.272-18-53.536-10.64c-15.52 8.624-6.912 29.504 0.72 33.424 7.632 3.936 11.696 7.04 52.816-22.784zM262.752 392.32s-30.336-35.712-46.24-36.704c-15.888-0.976-22.672 36.032-3.248 39.328 14.608 2.448 36.832 0.368 49.488-2.624zM297.472 339.248s-9.008-40.144-29.68-52.8c-14.528-8.896-32.416 4.8-26.016 29.216 0-0.016 9.328 23.584 55.696 23.584zM348.608 310.736s33.424-61.936-3.936-67.184c0 0-26.224-4.416-20.32 31.568 0 0 3.936 19.664 24.256 35.616zM422.656 316.96s51.12-43.264 25.568-65.536c0 0-24.24-11.808-30.8 10.48-0.016 0-7.888 30.8 5.232 55.056zM471.808 347.76s51.456-7.872 59.648-15.728c8.192-7.872 7.2-41.952-25.568-36.688 0-0.016-19.664 4.576-34.08 52.416z" fill="#E84618" p-id="28789"></path><path d="M665.792 539.68c-4.592-87.872-102.896-84.848-102.896-84.848-65.536-1.04-87.168 49.536-87.168 49.536-15.392 36.048-21.952 38.016-42.272 42.592-20.32 4.592-97.328 1.344-97.328 1.344-53.744 3.936-67.504 48.464-67.504 48.464-23.6 116.656 96.336 142.224 96.336 142.224 57.664 18.336 79.952 78.656 79.952 78.656 21.632 45.872 79.312 44.56 79.312 44.56 130.4-12.464 104.208-127.12 104.208-127.12-5.888-50.496 4.576-74.72 4.576-74.72 42.608-64.864 32.784-120.688 32.784-120.688z m-48.016 94.88c-22.112 12.528-82.08 7.632-82.08 7.632l37.36 55.536c31.456 37.84 20.64 74.72 20.64 74.72-8.352 43.248-71.28 40.784-71.28 40.784-36.368 1.008-47.184-34.88-47.184-34.88-6.384-41.312 11.552-70.784 11.552-70.784 2.688-11.312 0-18.192 0-18.192-8.112-20.16-23.84-1.472-23.84-1.472-12.288 19.152-44.24 30.464-44.24 30.464-45.712 7.84-75.696-18.688-75.696-18.688-37.84-45.712-14.736-84.032-14.736-84.032 11.792-21.664 45.216-36.56 45.216-36.56 39.984-20.624 64.64 4.336 64.64 4.336l30.224 33.68c10.336 9.344 20.656 14.752 20.656 14.752 27.52 5.408 19.664-20.16 19.664-20.16l-9.824-22.128c-17.696-45.216 14.256-85.216 14.256-85.216 31.952-39.968 92.896-17.52 92.896-17.52 70.784 36.864 39.328 111.584 39.328 111.584-13.776 28.528-27.552 36.144-27.552 36.144z" fill="#E84618" p-id="28790"></path><path d="M544.576 930.32c-265.488 0-480.704-215.216-480.704-480.72 0-182.576 101.76-341.344 251.664-422.736C130.608 101.296 0 282.256 0 493.824c0 277.984 225.328 503.328 503.312 503.328 224.448 0 414.48-146.944 479.392-349.84-75.408 166.848-243.136 283.008-438.128 283.008z" fill="#E84618" p-id="28791"></path></svg>