<?xml version="1.0" standalone="no"?><!DOCTYPE svg PUBLIC "-//W3C//DTD SVG 1.1//EN" "http://www.w3.org/Graphics/SVG/1.1/DTD/svg11.dtd"><svg t="1587010534000" class="icon" viewBox="0 0 1024 1024" version="1.1" xmlns="http://www.w3.org/2000/svg" p-id="26565" xmlns:xlink="http://www.w3.org/1999/xlink" width="64" height="64"><defs><style type="text/css"></style></defs><path d="M554.37866666 998.144H396.58666666L207.93066666 225.232h535.104z" fill="#9CFDFF" p-id="26566"></path><path d="M574.66666666 1024H376.29866666L175.01866666 199.392H775.94666666L574.66666666 1024z m-157.776-51.68h117.2l176.048-721.232H240.84266666L416.89066666 972.32z" p-id="26567"></path><path d="M713.67466666 277.904m-238.192 0a238.192 238.192 0 1 0 476.384 0 238.192 238.192 0 1 0-476.384 0Z" fill="#F1FF9F" p-id="26568"></path><path d="M713.65866666 541.936c-145.584 0-264.032-118.432-264.032-264.032S568.07466666 13.872 713.65866666 13.872 977.70666666 132.32 977.70666666 277.904s-118.448 264.032-264.048 264.032z m0-476.368c-117.088 0-212.336 95.248-212.336 212.336S596.58666666 490.24 713.65866666 490.24s212.352-95.248 212.352-212.336S830.74666666 65.568 713.65866666 65.568z" p-id="26569"></path><path d="M682.66666666 64h48v464h-48z" p-id="26570"></path><path d="M565.64266666 103.904L891.46666666 429.712l-36.528 36.544L529.09866666 140.448z" p-id="26571"></path><path d="M474.66666666 256h480v64H474.66666666z" p-id="26572"></path><path d="M854.92266666 103.904l36.544 36.544-325.808 325.808-36.544-36.544zM544.84266666 660.592c-33.504 0-71.984-7.536-110.032-25.552-71.04-33.648-98.864-6.704-99.12-6.432l-39.056-33.856c2.048-2.384 51.824-57.792 160.288-6.432 69.872 33.072 127.888 19.12 140.16 9.136 1.056-12.832 6.704-23.824 16.112-31.28 18.48-14.64 43.664-9.68 48.48-8.528l25.376 5.968-18.912 77.376-33.312-8.128a67.04 67.04 0 0 1-11.568 9.136c-18.176 11.536-45.968 18.592-78.416 18.592zM503.25866666 557.648a36.096 36.096 0 0 1-36.064-36.064 36.096 36.096 0 0 1 36.064-36.064 36.096 36.096 0 0 1 36.064 36.064 36.112 36.112 0 0 1-36.064 36.064z m0-51.696a15.648 15.648 0 0 0 0 31.264 15.648 15.648 0 0 0 0-31.264z" p-id="26573"></path><path d="M419.14666666 437.648a30.08 30.08 0 0 1-30.048-30.048 30.08 30.08 0 0 1 30.048-30.048 30.08 30.08 0 0 1 30.048 30.048 30.08 30.08 0 0 1-30.048 30.048z m0-51.68c-11.936 0-21.648 9.712-21.648 21.648s9.712 21.648 21.648 21.648a21.664 21.664 0 0 0 0-43.296z" p-id="26574"></path><path d="M501.61066666 976L313.57866666 120.112 74.66666666 59.584v57.712l192.032 51.2L443.89866666 976z" p-id="26575"></path></svg>