<?xml version="1.0" standalone="no"?><!DOCTYPE svg PUBLIC "-//W3C//DTD SVG 1.1//EN" "http://www.w3.org/Graphics/SVG/1.1/DTD/svg11.dtd"><svg t="1587010417900" class="icon" viewBox="0 0 1024 1024" version="1.1" xmlns="http://www.w3.org/2000/svg" p-id="23868" xmlns:xlink="http://www.w3.org/1999/xlink" width="64" height="64"><defs><style type="text/css"></style></defs><path d="M378.562145 315.123234c-1.282928 0-2.586334-0.113651-3.899979-0.335834l3.569264-20.887261c0.222183 0.062457 0.739245 0.139248 1.711936-1.562449 4.841954-8.498248 2.550498-32.215528-17.753147-56.139632-8.938519-10.526565-12.512903-22.780425-10.340218-35.437695 5.747068-33.483098 49.352297-59.739613 54.307901-62.625946l10.665814 18.306046c-11.095845 6.486314-40.652343 27.746268-44.096693 47.925-1.117059 6.538532 0.667573 12.295839 5.611915 18.124818 27.047979 31.863311 29.334315 63.985666 20.007743 80.337114-4.494857 7.883917-11.705057 12.295839-19.784536 12.295839zM642.099989 320.917401a23.375302 23.375302 0 0 1-3.89486-0.335834l3.569264-20.887261c0.584639-0.040955 1.872686-1.055626 2.855616-4.360727 2.545379-8.540227 1.427296-29.386533-18.906042-53.34545-8.933399-10.526565-12.507783-22.780425-10.335099-35.437695 5.747068-33.483098 49.352297-59.739613 54.307902-62.625946l10.665813 18.306046c-11.095845 6.486314-40.652343 27.746268-44.091573 47.925001-1.117059 6.538532 0.667573 12.295839 5.611915 18.124818 27.047979 31.874574 29.329195 63.991809 20.002624 80.347353-4.494857 7.881869-11.706081 12.289696-19.78556 12.289695zM493.907946 315.024941c-0.947094 0-1.888045-0.077815-2.835138-0.237541l3.569264-20.887261c-0.806822-0.139248-1.262451-0.010239-1.277809-0.005119 4.670965-1.318764 18.565089-17.763387 23.14288-42.255748 3.259027-17.426528 2.162446-41.95063-21.575311-59.822547-13.469211-10.143632-15.880461-21.988961-15.533365-30.146256 1.417057-33.229174 51.763546-65.744701 57.499352-69.344681l11.260691 17.94359c-18.026525 11.338506-46.890876 35.567728-47.594285 52.311325-0.12389 2.896572 0.481226 7.319756 7.112931 12.311197 37.476251 28.222375 36.239397 72.086646 22.583839 103.732894-8.038524 18.632665-22.117971 36.400147-36.353049 36.400147z" fill="#4D5152" p-id="23869"></path><path d="M171.670757 721.708097S282.959924 870.093654 396.310173 911.312205c0 0 138.081175 18.548707 245.249204 0 0 0 84.49716-20.608764 208.152815-189.604108H171.670757z" fill="#FFB957" p-id="23870"></path><path d="M529.562705 930.171149c-71.222487 0-130.916025-7.857296-134.665493-8.359l-2.208521-0.542659c-114.988465-41.816501-224.871838-187.044395-229.491609-193.205113l-12.714608-16.950422h720.104692l-12.326555 16.847009C733.755131 898.12149 647.676068 920.725807 644.070968 921.605324c-37.093318 6.43-77.372966 8.565825-114.508263 8.565825z m-130.718416-29.215544c13.335082 1.691459 141.675012 17.085574 240.91305-0.082935 0.046075-0.046075 76.601981-21.130945 188.834147-168.57248H193.653575c32.547267 39.514806 118.945782 136.751148 205.190714 168.655415z" fill="#4D5152" p-id="23871"></path><path d="M99.53906 607.495736a411.152415 213.136065 0 1 0 822.304829 0 411.152415 213.136065 0 1 0-822.304829 0Z" fill="#F9F0DD" p-id="23872"></path><path d="M510.692498 826.810949c-230.122322 0-417.337706-98.384117-417.337706-219.316236s187.215384-219.316237 417.337706-219.316237c230.117203 0 417.332587 98.384117 417.332587 219.316237s-187.215384 219.316237-417.332587 219.316236z m0-426.271105c-223.305294 0-404.974291 92.839778-404.97429 206.953845s181.670021 206.953845 404.97429 206.953845c223.300174 0 404.969171-92.839778 404.969172-206.953845S733.992673 400.539844 510.692498 400.539844z" fill="#4D5152" p-id="23873"></path><path d="M510.692498 719.001968c-181.27173 0-323.267218-59.843026-323.267218-136.238182s141.995489-136.238181 323.267218-136.238181c181.26661 0 323.262099 59.843026 323.262099 136.238181s-141.995489 136.238181-323.262099 136.238182z m0-256.586687c-166.617883 0-307.376518 55.114723-307.376517 120.347482s140.758635 120.347481 307.376517 120.347481c166.611739 0 307.371398-55.114723 307.371399-120.347481s-140.758635-120.347481-307.371399-120.347482z" fill="#4D5152" p-id="23874"></path><path d="M510.692498 743.73187c-181.27173 0-323.267218-59.843026-323.267218-136.238181 0-76.390036 141.995489-136.233062 323.267218-136.233062 181.26661 0 323.262099 59.843026 323.262099 136.233062 0 76.39618-141.995489 136.238181-323.262099 136.238181z m0-256.580543c-166.617883 0-307.376518 55.109604-307.376517 120.342362s140.758635 120.347481 307.376517 120.347481c166.611739 0 307.371398-55.114723 307.371399-120.347481S677.305262 487.151327 510.692498 487.151327z" fill="#4D5152" p-id="23875"></path><path d="M404.163374 544.073208c1.545043 17.065097-3.140256 26.070168-18.621403 33.27013-8.858656 2.578143-20.505351-2.227974-30.261954-11.589358l-101.173181-197.733758c-5.197242-11.174684 3.140256-26.070168 18.621402-33.27013 15.481146-7.198938 32.244197-3.975747 37.440415 7.198938l93.994721 202.124178z" fill="#FFFFFF" p-id="23876"></path><path d="M380.470667 588.629625c-10.577759 0-22.237765-5.359016-32.525765-15.228246l-1.282928-1.23071-101.985122-199.323852c-4.106804-8.80439-3.408514-18.92652 1.743677-28.124082 4.59315-8.214632 12.352153-15.166813 21.839474-19.578735 21.114563-9.818036 43.730142-4.386325 51.514742 12.336794l94.768778 203.798231 0.170989 1.835826c1.970979 21.75142-5.415329 34.8592-24.699186 43.833555l-1.510231 0.56928a28.865375 28.865375 0 0 1-8.034428 1.111939z m-16.609467-29.366055c7.303374 6.543651 14.229958 8.772649 18.109459 8.048763 9.858992-4.764138 12.518022-9.306094 11.782873-20.504327l-93.190971-200.389717c-2.327291-5.022158-12.82314-6.952181-23.370183-2.064153-5.405091 2.513638-9.879469 6.419761-12.2856 10.712912-1.050506 1.872686-2.596573 5.467548-1.194874 8.48289l100.149296 195.713632z" fill="#4D5152" p-id="23877"></path><path d="M390.127954 513.981218a17.00264 13.91153 0 1 0 34.005279 0 17.00264 13.91153 0 1 0-34.005279 0Z" fill="#67DDE0" p-id="23878"></path><path d="M518.419761 592.811173a17.00264 13.91153 0 1 0 34.005279 0 17.00264 13.91153 0 1 0-34.005279 0Z" fill="#67DDE0" p-id="23879"></path><path d="M390.127954 632.999696a17.00264 13.91153 0 1 0 34.005279 0 17.00264 13.91153 0 1 0-34.005279 0Z" fill="#67DDE0" p-id="23880"></path><path d="M700.810597 679.370439a17.00264 13.91153 0 1 0 34.00528 0 17.00264 13.91153 0 1 0-34.00528 0Z" fill="#67DDE0" p-id="23881"></path><path d="M717.813237 513.981218a17.00264 13.91153 0 1 0 34.005279 0 17.00264 13.91153 0 1 0-34.005279 0Z" fill="#67DDE0" p-id="23882"></path><path d="M608.070136 592.811173a17.00264 13.91153 0 1 0 34.00528 0 17.00264 13.91153 0 1 0-34.00528 0Z" fill="#FFB957" p-id="23883"></path><path d="M461.229622 564.989137a17.00264 13.91153 0 1 0 34.00528 0 17.00264 13.91153 0 1 0-34.00528 0Z" fill="#FFB957" p-id="23884"></path><path d="M444.226983 679.370439a17.00264 13.91153 0 1 0 34.005279 0 17.00264 13.91153 0 1 0-34.005279 0Z" fill="#FFB957" p-id="23885"></path><path d="M751.818516 632.999696a17.00264 13.91153 0 1 0 34.00528 0 17.00264 13.91153 0 1 0-34.00528 0Z" fill="#FFB957" p-id="23886"></path><path d="M734.815877 632.999696a17.00264 13.91153 0 1 0 34.005279 0 17.00264 13.91153 0 1 0-34.005279 0Z" fill="#FFB957" p-id="23887"></path><path d="M683.808981 592.811173a17.00264 13.91153 0 1 0 34.00528 0 17.00264 13.91153 0 1 0-34.00528 0Z" fill="#282828" p-id="23888"></path><path d="M552.42504 646.911226a17.00264 13.91153 0 1 0 34.00528 0 17.00264 13.91153 0 1 0-34.00528 0Z" fill="#282828" p-id="23889"></path><path d="M252.561793 578.900667a17.00264 13.91153 0 1 0 34.005279 0 17.00264 13.91153 0 1 0-34.005279 0Z" fill="#282828" p-id="23890"></path><path d="M336.01971 578.033436a17.00264 13.91153 0 1 0 34.005279 0 17.00264 13.91153 0 1 0-34.005279 0Z" fill="#282828" p-id="23891"></path><path d="M373.125314 592.811173a17.00264 13.91153 0 1 0 34.005279 0 17.00264 13.91153 0 1 0-34.005279 0Z" fill="#282828" p-id="23892"></path><path d="M358.25338 582.76481a17.00264 13.91153 0 1 0 34.005279 0 17.00264 13.91153 0 1 0-34.005279 0Z" fill="#FFB957" p-id="23893"></path><path d="M390.127954 564.989137a17.00264 13.91153 0 1 0 34.005279 0 17.00264 13.91153 0 1 0-34.005279 0Z" fill="#282828" p-id="23894"></path><path d="M418.284484 560.138353a13.91153 17.00264 57.865 1 0 28.795573-18.087951 13.91153 17.00264 57.865 1 0-28.795573 18.087951Z" fill="#282828" p-id="23895"></path><path d="M335.490328 633.548197a8.880157 10.854208 57.865 1 0 18.382625-11.547053 8.880157 10.854208 57.865 1 0-18.382625 11.547053Z" fill="#67DDE0" p-id="23896"></path><path d="M235.559153 606.722703a17.00264 13.91153 0 1 0 34.00528 0 17.00264 13.91153 0 1 0-34.00528 0Z" fill="#282828" p-id="23897"></path><path d="M478.232262 486.159182a17.00264 13.91153 0 1 0 34.005279 0 17.00264 13.91153 0 1 0-34.005279 0Z" fill="#282828" p-id="23898"></path><path d="M591.067496 513.981218a17.00264 13.91153 0 1 0 34.00528 0 17.00264 13.91153 0 1 0-34.00528 0Z" fill="#282828" p-id="23899"></path></svg>